<svg width="1080" height="1080" viewBox="0 0 1080 1080" fill="none" xmlns="http://www.w3.org/2000/svg">
<g clip-path="url(#clip0_1275_3766)">
<rect width="108" height="108" transform="matrix(1 0 0 -1 -0.00244141 648)" fill="#9B97E9"/>
<rect width="108" height="108" transform="matrix(1 0 0 -1 -0.00244141 108)" fill="#FCFAF5"/>
<rect width="108" height="108" transform="matrix(1 0 0 -1 107.998 1080)" fill="#FCFAF5"/>
<rect width="108" height="108" transform="matrix(1 0 0 -1 107.998 864)" fill="#5851DB"/>
<rect width="108" height="108" transform="matrix(1 0 0 -1 107.998 756)" fill="#5851DB"/>
<rect width="108" height="108" transform="matrix(1 0 0 -1 107.998 540)" fill="#FCFAF5"/>
<rect width="108" height="108" transform="matrix(1 0 0 -1 107.998 216)" fill="#9B97E9"/>
<rect width="108" height="108" transform="matrix(1 0 0 -1 215.998 1080)" fill="#FCFAF5"/>
<rect width="108" height="108" transform="matrix(1 0 0 -1 215.998 864)" fill="#5851DB"/>
<rect width="108" height="108" transform="matrix(1 0 0 -1 215.998 756)" fill="#5851DB"/>
<rect width="108" height="108" transform="matrix(1 0 0 -1 755.999 972)" fill="#5851DB"/>
<rect width="108" height="108" transform="matrix(1 0 0 -1 864 1080)" fill="#FCFAF5"/>
</g>
<defs>
<clipPath id="clip0_1275_3766">
<rect width="1080" height="1080" fill="white"/>
</clipPath>
</defs>
</svg>
