<?xml version="1.0" encoding="UTF-8"?>
<svg id="Layer_1" xmlns="http://www.w3.org/2000/svg" version="1.1" viewBox="0 0 734.01 37.84">
  <!-- Generator: Adobe Illustrator 29.6.1, SVG Export Plug-In . SVG Version: 2.1.1 Build 9)  -->
  <defs>
    <style>
      .st0 {
        fill: #5851db;
      }
    </style>
  </defs>
  <path class="st0" d="M0,30.79V0h11.19c2.34,0,4.39.3,6.17.89,1.77.59,3.27,1.47,4.5,2.64,1.22,1.17,2.15,2.61,2.79,4.33.63,1.72.95,3.69.95,5.91v3.25c0,3.04-.58,5.58-1.73,7.62-1.15,2.04-2.8,3.58-4.94,4.6-2.14,1.03-4.72,1.54-7.73,1.54H0ZM3.76,29.18l-1.69-1.69h9.42c2.25,0,4.12-.38,5.62-1.14,1.49-.76,2.62-1.84,3.38-3.23.76-1.39,1.14-3.05,1.14-4.96v-5.53c0-2-.39-3.7-1.18-5.09-.79-1.39-1.94-2.45-3.44-3.17-1.51-.72-3.34-1.08-5.51-1.08H2.07l1.69-1.69v27.58Z"/>
  <path class="st0" d="M38.89,31.17c-1.44,0-2.73-.23-3.89-.7-1.15-.46-2.13-1.13-2.94-1.98-.8-.86-1.43-1.89-1.88-3.08-.45-1.2-.68-2.51-.68-3.95v-3.42c0-1.97.39-3.69,1.16-5.15.77-1.46,1.86-2.6,3.25-3.42,1.39-.82,3.05-1.22,4.96-1.22,1.66,0,3.17.35,4.52,1.03,1.35.69,2.35,1.64,3,2.85h.21l.25-3.51h3.46v22.17h-3.46l-.3-3.55h-.17c-.65,1.24-1.65,2.2-3,2.89-1.35.69-2.86,1.03-4.52,1.03ZM40.03,28.17c1.55,0,2.9-.37,4.05-1.12,1.15-.75,2-1.79,2.53-3.15v-8.4c-.54-1.32-1.38-2.36-2.53-3.1-1.15-.75-2.51-1.12-4.05-1.12-1.32,0-2.48.24-3.46.72-.99.48-1.76,1.17-2.32,2.07-.56.9-.84,2-.84,3.29v4.73c0,1.24.28,2.32.84,3.25.56.93,1.34,1.63,2.32,2.11.99.48,2.14.72,3.46.72Z"/>
  <path class="st0" d="M53.8,11.7v-3.08h12.63v3.08h-12.63ZM60.94,30.79c-1.01,0-1.79-.25-2.32-.74-.54-.49-.8-1.25-.8-2.26V2.2h3.76v25.38h5.19v3.21h-5.83Z"/>
  <path class="st0" d="M78.51,31.17c-1.44,0-2.73-.23-3.89-.7-1.15-.46-2.13-1.13-2.94-1.98-.8-.86-1.43-1.89-1.88-3.08-.45-1.2-.68-2.51-.68-3.95v-3.42c0-1.97.39-3.69,1.16-5.15.77-1.46,1.86-2.6,3.25-3.42,1.39-.82,3.05-1.22,4.96-1.22,1.66,0,3.17.35,4.52,1.03,1.35.69,2.35,1.64,3,2.85h.21l.25-3.51h3.46v22.17h-3.46l-.3-3.55h-.17c-.65,1.24-1.65,2.2-3,2.89-1.35.69-2.86,1.03-4.52,1.03ZM79.65,28.17c1.55,0,2.9-.37,4.05-1.12,1.15-.75,2-1.79,2.53-3.15v-8.4c-.54-1.32-1.38-2.36-2.53-3.1-1.15-.75-2.51-1.12-4.05-1.12-1.32,0-2.48.24-3.46.72-.99.48-1.76,1.17-2.32,2.07-.56.9-.84,2-.84,3.29v4.73c0,1.24.28,2.32.84,3.25.56.93,1.34,1.63,2.32,2.11.99.48,2.14.72,3.46.72Z"/>
  <path class="st0" d="M110.56,31.21c-1.94,0-3.6-.28-4.96-.84-1.37-.56-2.43-1.35-3.19-2.36s-1.22-2.2-1.39-3.55h3.84c.11.93.41,1.69.89,2.28.48.59,1.13,1.03,1.96,1.31.83.28,1.82.42,2.98.42,1.75,0,3.04-.31,3.89-.93.84-.62,1.27-1.45,1.27-2.49,0-1.1-.37-1.91-1.12-2.45-.75-.53-1.79-.97-3.15-1.31l-3.38-.63c-1.49-.34-2.71-.77-3.65-1.31-.94-.53-1.64-1.2-2.09-1.98-.45-.79-.68-1.72-.68-2.79,0-1.38.37-2.53,1.12-3.46.75-.93,1.76-1.64,3.04-2.13,1.28-.49,2.72-.74,4.33-.74,1.8,0,3.35.25,4.65.76,1.29.51,2.32,1.24,3.06,2.2.75.96,1.19,2.08,1.33,3.38h-3.72c-.08-.87-.36-1.57-.82-2.09-.46-.52-1.08-.91-1.84-1.18-.76-.27-1.63-.4-2.62-.4-1.04,0-1.92.14-2.64.42-.72.28-1.26.66-1.63,1.14-.37.48-.55,1.06-.55,1.73,0,.9.32,1.61.97,2.13.65.52,1.65.94,3,1.25l3.29.63c1.49.31,2.75.73,3.78,1.27,1.03.54,1.81,1.22,2.34,2.07.53.84.8,1.91.8,3.21,0,1.41-.39,2.6-1.18,3.57-.79.97-1.87,1.7-3.23,2.17-1.37.48-2.94.72-4.71.72Z"/>
  <path class="st0" d="M133.62,31.17c-1.66,0-3.15-.23-4.48-.7-1.32-.46-2.45-1.13-3.38-2.01-.93-.87-1.65-1.94-2.15-3.19-.51-1.25-.76-2.65-.76-4.2v-2.79c0-2.05.44-3.84,1.33-5.34.89-1.51,2.14-2.67,3.76-3.48,1.62-.82,3.51-1.22,5.68-1.22,1.58,0,2.99.23,4.24.7,1.25.46,2.33,1.13,3.23,2.01.9.87,1.59,1.92,2.07,3.15.48,1.22.72,2.58.72,4.08v2.53h-17.74v-2.79h14.49l-.55.76v-1.6c0-1.18-.27-2.21-.8-3.08-.54-.87-1.28-1.55-2.24-2.03-.96-.48-2.1-.72-3.42-.72-1.41,0-2.63.25-3.67.76-1.04.51-1.84,1.21-2.39,2.11-.55.9-.82,1.96-.82,3.17v4.86c0,1.18.28,2.23.84,3.15.56.92,1.37,1.63,2.41,2.13,1.04.51,2.25.76,3.63.76,1.77,0,3.19-.34,4.27-1.03,1.07-.69,1.76-1.65,2.07-2.89h3.72c-.23,1.46-.81,2.71-1.75,3.74-.94,1.03-2.13,1.82-3.55,2.36-1.42.55-3.01.82-4.75.82Z"/>
  <path class="st0" d="M158.19,31.17c-1.63,0-3.11-.24-4.43-.72-1.32-.48-2.46-1.15-3.4-2.03-.94-.87-1.66-1.93-2.15-3.17-.49-1.24-.74-2.63-.74-4.18v-2.79c0-2.05.44-3.84,1.33-5.34.89-1.51,2.14-2.67,3.76-3.48,1.62-.82,3.51-1.22,5.68-1.22,1.91,0,3.59.32,5.03.95,1.44.63,2.59,1.52,3.46,2.66.87,1.14,1.41,2.5,1.6,4.08h-3.8c-.25-1.58-.94-2.75-2.07-3.53-1.13-.77-2.53-1.16-4.22-1.16-1.41,0-2.63.25-3.65.76-1.03.51-1.82,1.21-2.39,2.11-.56.9-.84,1.96-.84,3.17v4.86c0,1.18.28,2.23.84,3.15.56.92,1.36,1.63,2.39,2.13,1.03.51,2.24.76,3.65.76,1.13,0,2.13-.18,3.02-.53.89-.35,1.62-.88,2.2-1.58.58-.7.95-1.58,1.12-2.62h3.76c-.17,1.58-.7,2.94-1.6,4.1-.9,1.15-2.08,2.05-3.53,2.68-1.45.63-3.12.95-5,.95Z"/>
  <path class="st0" d="M191.6,8.62v22.17h-3.42l-.25-3.51h-.3c-.76,1.18-1.81,2.13-3.15,2.83-1.34.7-2.85,1.06-4.54,1.06-1.8,0-3.32-.34-4.54-1.01-1.22-.68-2.14-1.64-2.75-2.89-.61-1.25-.91-2.71-.91-4.37v-14.27h3.76v13.89c0,1.27.23,2.32.7,3.15.46.83,1.12,1.44,1.96,1.84.84.39,1.82.59,2.91.59,1.63,0,3.02-.4,4.16-1.2,1.14-.8,2.02-1.81,2.64-3.02v-15.25h3.72Z"/>
  <path class="st0" d="M196.41,30.79V8.62h3.46l.25,3.63h.3c.59-1.32,1.31-2.29,2.15-2.91.84-.62,1.94-.93,3.29-.93h1.14l.3,3.67h-1.69c-.93,0-1.72.13-2.37.38-.65.25-1.21.65-1.69,1.18-.48.54-.96,1.24-1.44,2.11v15.03h-3.72Z"/>
  <path class="st0" d="M210.77,5.03V0h3.76v5.03h-3.76ZM210.77,30.79V8.62h3.72v22.17h-3.72Z"/>
  <path class="st0" d="M217.95,11.7v-3.08h12.63v3.08h-12.63ZM225.09,30.79c-1.01,0-1.79-.25-2.32-.74-.54-.49-.8-1.25-.8-2.26V2.2h3.76v25.38h5.19v3.21h-5.83Z"/>
  <path class="st0" d="M234.59,37.84v-3.25h8.02v-5.87l-9.38-20.1h3.97l6.33,14.36.84,2.11h.3l.8-2.11,6.33-14.36h4.01l-9.46,20.14v6c0,1.07-.3,1.85-.89,2.34-.59.49-1.39.74-2.41.74h-8.49Z"/>
  <path class="st0" d="M265.25,11.7v-3.08h12.63v3.08h-12.63ZM272.38,30.79c-1.01,0-1.79-.25-2.32-.74-.54-.49-.8-1.25-.8-2.26V2.2h3.76v25.38h5.19v3.21h-5.83Z"/>
  <path class="st0" d="M281.89,30.79V0h3.72v12.16h.25c.79-1.21,1.84-2.17,3.17-2.87,1.32-.7,2.83-1.06,4.52-1.06,1.8,0,3.32.34,4.54,1.01,1.22.68,2.14,1.63,2.75,2.87.61,1.24.91,2.7.91,4.39v14.27h-3.76v-13.89c0-1.27-.23-2.31-.7-3.13-.46-.82-1.11-1.42-1.94-1.82-.83-.39-1.81-.59-2.94-.59-1.63,0-3.02.39-4.16,1.18-1.14.79-2.02,1.79-2.64,3v15.25h-3.72Z"/>
  <path class="st0" d="M315.08,31.17c-1.44,0-2.73-.23-3.89-.7-1.15-.46-2.13-1.13-2.94-1.98-.8-.86-1.43-1.89-1.88-3.08-.45-1.2-.68-2.51-.68-3.95v-3.42c0-1.97.39-3.69,1.16-5.15.77-1.46,1.86-2.6,3.25-3.42,1.39-.82,3.05-1.22,4.96-1.22,1.66,0,3.17.35,4.52,1.03,1.35.69,2.35,1.64,3,2.85h.21l.25-3.51h3.46v22.17h-3.46l-.3-3.55h-.17c-.65,1.24-1.65,2.2-3,2.89-1.35.69-2.86,1.03-4.52,1.03ZM316.22,28.17c1.55,0,2.9-.37,4.05-1.12,1.15-.75,2-1.79,2.53-3.15v-8.4c-.54-1.32-1.38-2.36-2.53-3.1-1.15-.75-2.51-1.12-4.05-1.12-1.32,0-2.48.24-3.46.72-.99.48-1.76,1.17-2.32,2.07-.56.9-.84,2-.84,3.29v4.73c0,1.24.28,2.32.84,3.25.56.93,1.34,1.63,2.32,2.11.99.48,2.14.72,3.46.72Z"/>
  <path class="st0" d="M329.99,11.7v-3.08h12.63v3.08h-12.63ZM337.12,30.79c-1.01,0-1.79-.25-2.32-.74-.54-.49-.8-1.25-.8-2.26V2.2h3.76v25.38h5.19v3.21h-5.83Z"/>
  <path class="st0" d="M362.42,31.21c-1.94,0-3.6-.28-4.96-.84-1.37-.56-2.43-1.35-3.19-2.36-.76-1.01-1.22-2.2-1.39-3.55h3.84c.11.93.41,1.69.89,2.28.48.59,1.13,1.03,1.96,1.31.83.28,1.82.42,2.98.42,1.75,0,3.04-.31,3.89-.93.84-.62,1.27-1.45,1.27-2.49,0-1.1-.37-1.91-1.12-2.45-.75-.53-1.79-.97-3.15-1.31l-3.38-.63c-1.49-.34-2.71-.77-3.65-1.31-.94-.53-1.64-1.2-2.09-1.98-.45-.79-.68-1.72-.68-2.79,0-1.38.37-2.53,1.12-3.46.75-.93,1.76-1.64,3.04-2.13,1.28-.49,2.72-.74,4.33-.74,1.8,0,3.35.25,4.65.76,1.29.51,2.32,1.24,3.06,2.2.75.96,1.19,2.08,1.33,3.38h-3.72c-.08-.87-.36-1.57-.82-2.09-.46-.52-1.08-.91-1.84-1.18-.76-.27-1.63-.4-2.62-.4-1.04,0-1.92.14-2.64.42-.72.28-1.26.66-1.63,1.14-.37.48-.55,1.06-.55,1.73,0,.9.32,1.61.97,2.13.65.52,1.65.94,3,1.25l3.29.63c1.49.31,2.75.73,3.78,1.27,1.03.54,1.81,1.22,2.34,2.07.53.84.8,1.91.8,3.21,0,1.41-.39,2.6-1.18,3.57-.79.97-1.87,1.7-3.23,2.17-1.37.48-2.93.72-4.71.72Z"/>
  <path class="st0" d="M373.95,11.7v-3.08h12.63v3.08h-12.63ZM381.09,30.79c-1.01,0-1.79-.25-2.32-.74-.54-.49-.8-1.25-.8-2.26V2.2h3.76v25.38h5.19v3.21h-5.83Z"/>
  <path class="st0" d="M398.65,31.17c-1.44,0-2.73-.23-3.89-.7-1.15-.46-2.13-1.13-2.93-1.98-.8-.86-1.43-1.89-1.88-3.08-.45-1.2-.68-2.51-.68-3.95v-3.42c0-1.97.39-3.69,1.16-5.15.77-1.46,1.86-2.6,3.25-3.42,1.39-.82,3.05-1.22,4.96-1.22,1.66,0,3.17.35,4.52,1.03,1.35.69,2.35,1.64,3,2.85h.21l.25-3.51h3.46v22.17h-3.46l-.3-3.55h-.17c-.65,1.24-1.65,2.2-3,2.89-1.35.69-2.86,1.03-4.52,1.03ZM399.79,28.17c1.55,0,2.9-.37,4.05-1.12,1.15-.75,2-1.79,2.53-3.15v-8.4c-.54-1.32-1.38-2.36-2.53-3.1-1.15-.75-2.51-1.12-4.05-1.12-1.32,0-2.48.24-3.46.72-.99.48-1.76,1.17-2.32,2.07-.56.9-.84,2-.84,3.29v4.73c0,1.24.28,2.32.84,3.25.56.93,1.34,1.63,2.32,2.11.99.48,2.14.72,3.46.72Z"/>
  <path class="st0" d="M414.91,30.79V8.62h3.46l.25,3.63h.3c.59-1.32,1.31-2.29,2.15-2.91.84-.62,1.94-.93,3.29-.93h1.14l.3,3.67h-1.69c-.93,0-1.72.13-2.37.38-.65.25-1.21.65-1.69,1.18-.48.54-.96,1.24-1.44,2.11v15.03h-3.72Z"/>
  <path class="st0" d="M428.26,11.7v-3.08h12.63v3.08h-12.63ZM435.39,30.79c-1.01,0-1.79-.25-2.32-.74-.54-.49-.8-1.25-.8-2.26V2.2h3.76v25.38h5.19v3.21h-5.83Z"/>
  <path class="st0" d="M453.17,31.21c-1.94,0-3.6-.28-4.96-.84-1.37-.56-2.43-1.35-3.19-2.36-.76-1.01-1.22-2.2-1.39-3.55h3.84c.11.93.41,1.69.89,2.28.48.59,1.13,1.03,1.96,1.31.83.28,1.82.42,2.98.42,1.75,0,3.04-.31,3.89-.93.84-.62,1.27-1.45,1.27-2.49,0-1.1-.37-1.91-1.12-2.45-.75-.53-1.79-.97-3.15-1.31l-3.38-.63c-1.49-.34-2.71-.77-3.65-1.31-.94-.53-1.64-1.2-2.09-1.98-.45-.79-.68-1.72-.68-2.79,0-1.38.37-2.53,1.12-3.46.75-.93,1.76-1.64,3.04-2.13,1.28-.49,2.72-.74,4.33-.74,1.8,0,3.35.25,4.65.76,1.29.51,2.32,1.24,3.06,2.2.75.96,1.19,2.08,1.33,3.38h-3.72c-.08-.87-.36-1.57-.82-2.09-.46-.52-1.08-.91-1.84-1.18-.76-.27-1.63-.4-2.62-.4-1.04,0-1.92.14-2.64.42-.72.28-1.26.66-1.63,1.14-.37.48-.55,1.06-.55,1.73,0,.9.32,1.61.97,2.13.65.52,1.65.94,3,1.25l3.29.63c1.49.31,2.75.73,3.78,1.27,1.03.54,1.81,1.22,2.34,2.07.53.84.8,1.91.8,3.21,0,1.41-.39,2.6-1.18,3.57-.79.97-1.87,1.7-3.23,2.17-1.37.48-2.93.72-4.71.72Z"/>
  <path class="st0" d="M478.89,30.79l-6.8-22.17h3.93l4.65,16.64.59,2.11h.25l.55-2.11,4.39-16.64h4.22l4.43,16.64.55,2.11h.25l.59-2.11,4.65-16.64h3.84l-6.8,22.17h-4.81l-4.14-15.54-.55-2.45h-.3l-.59,2.45-4.14,15.54h-4.77Z"/>
  <path class="st0" d="M508.37,5.03V0h3.76v5.03h-3.76ZM508.37,30.79V8.62h3.72v22.17h-3.72Z"/>
  <path class="st0" d="M515.55,11.7v-3.08h12.63v3.08h-12.63ZM522.68,30.79c-1.01,0-1.79-.25-2.32-.74-.54-.49-.8-1.25-.8-2.26V2.2h3.76v25.38h5.19v3.21h-5.83Z"/>
  <path class="st0" d="M532.19,30.79V0h3.72v12.16h.25c.79-1.21,1.84-2.17,3.17-2.87,1.32-.7,2.83-1.06,4.52-1.06,1.8,0,3.32.34,4.54,1.01s2.14,1.63,2.75,2.87c.61,1.24.91,2.7.91,4.39v14.27h-3.76v-13.89c0-1.27-.23-2.31-.7-3.13-.46-.82-1.11-1.42-1.94-1.82-.83-.39-1.81-.59-2.94-.59-1.63,0-3.02.39-4.16,1.18-1.14.79-2.02,1.79-2.64,3v15.25h-3.72Z"/>
  <path class="st0" d="M564.03,5.03V0h3.76v5.03h-3.76ZM564.03,30.79V8.62h3.72v22.17h-3.72Z"/>
  <path class="st0" d="M581.13,31.17c-1.44,0-2.73-.23-3.89-.7-1.15-.46-2.13-1.13-2.94-1.98-.8-.86-1.43-1.89-1.88-3.08-.45-1.2-.68-2.51-.68-3.95v-3.42c0-1.97.39-3.69,1.16-5.15.77-1.46,1.86-2.6,3.25-3.42,1.39-.82,3.05-1.22,4.96-1.22,1.66,0,3.17.35,4.52,1.03,1.35.69,2.35,1.64,3,2.85h.21V0h3.72v30.79h-3.46l-.3-3.55h-.17c-.65,1.24-1.65,2.2-3,2.89s-2.86,1.03-4.52,1.03ZM582.27,28.17c1.55,0,2.9-.37,4.05-1.12,1.15-.75,2-1.79,2.53-3.15v-8.4c-.54-1.32-1.38-2.36-2.53-3.1-1.15-.75-2.51-1.12-4.05-1.12-1.32,0-2.48.24-3.46.72-.99.48-1.76,1.17-2.32,2.07-.56.9-.84,2-.84,3.29v4.73c0,1.24.28,2.32.84,3.25.56.93,1.34,1.63,2.32,2.11.99.48,2.14.72,3.46.72Z"/>
  <path class="st0" d="M607.31,31.17c-1.66,0-3.15-.23-4.48-.7-1.32-.46-2.45-1.13-3.38-2.01-.93-.87-1.65-1.94-2.15-3.19-.51-1.25-.76-2.65-.76-4.2v-2.79c0-2.05.44-3.84,1.33-5.34.89-1.51,2.14-2.67,3.76-3.48,1.62-.82,3.51-1.22,5.68-1.22,1.58,0,2.99.23,4.24.7,1.25.46,2.33,1.13,3.23,2.01.9.87,1.59,1.92,2.07,3.15.48,1.22.72,2.58.72,4.08v2.53h-17.74v-2.79h14.49l-.55.76v-1.6c0-1.18-.27-2.21-.8-3.08-.54-.87-1.28-1.55-2.24-2.03-.96-.48-2.1-.72-3.42-.72-1.41,0-2.63.25-3.67.76-1.04.51-1.84,1.21-2.39,2.11-.55.9-.82,1.96-.82,3.17v4.86c0,1.18.28,2.23.84,3.15.56.92,1.37,1.63,2.41,2.13,1.04.51,2.25.76,3.63.76,1.77,0,3.19-.34,4.27-1.03,1.07-.69,1.76-1.65,2.07-2.89h3.72c-.23,1.46-.81,2.71-1.75,3.74-.94,1.03-2.13,1.82-3.55,2.36-1.42.55-3.01.82-4.75.82Z"/>
  <path class="st0" d="M621.5,30.79V8.62h3.42l.25,3.55h.3c.79-1.21,1.84-2.17,3.17-2.87,1.32-.7,2.83-1.06,4.52-1.06,1.8,0,3.32.34,4.54,1.01,1.22.68,2.14,1.63,2.74,2.87.61,1.24.91,2.7.91,4.39v14.27h-3.76v-13.89c0-1.27-.23-2.31-.7-3.13-.46-.82-1.11-1.42-1.94-1.82-.83-.39-1.81-.59-2.93-.59-1.63,0-3.02.39-4.16,1.18-1.14.79-2.02,1.79-2.64,3v15.25h-3.72Z"/>
  <path class="st0" d="M644.18,11.7v-3.08h12.63v3.08h-12.63ZM651.32,30.79c-1.01,0-1.79-.25-2.32-.74-.54-.49-.8-1.25-.8-2.26V2.2h3.76v25.38h5.19v3.21h-5.83Z"/>
  <path class="st0" d="M660.82,5.03V0h3.76v5.03h-3.76ZM660.82,30.79V8.62h3.72v22.17h-3.72Z"/>
  <path class="st0" d="M668,11.7v-3.08h12.63v3.08h-12.63ZM675.14,30.79c-1.01,0-1.79-.25-2.32-.74-.54-.49-.8-1.25-.8-2.26V2.2h3.76v25.38h5.19v3.21h-5.83Z"/>
  <path class="st0" d="M684.64,37.84v-3.25h8.02v-5.87l-9.38-20.1h3.97l6.33,14.36.84,2.11h.3l.8-2.11,6.33-14.36h4.01l-9.46,20.14v6c0,1.07-.3,1.85-.89,2.34-.59.49-1.39.74-2.41.74h-8.49Z"/>
  <path class="st0" d="M709.81,13.18V2.41h-4.1V0h11.06v2.41h-4.31v10.77h-2.66ZM718.8,13.18V0h3.59l3.97,9.63h.13l3.84-9.63h3.67v13.18h-2.58v-5.45l.08-4.39h-.13l-4.01,9.84h-2.03l-4.01-9.84h-.04l.04,4.39v5.45h-2.53Z"/>
</svg>